PathFileType	4	(X/Y/Z)
DataRate	CameraRate	NumFrames	NumMarkers	Units	OrigDataRate	OrigDataStartFrame	OrigNumFrames	
	120.0	120.0	11	39	mm	120.0	151	201
Frame#	Time	midhip	hip_r	hip_l	knee_r	knee_l	ankle_r	ankle_l	midasis	asis_r	asis_l	psis_r	psis_l	epicondLat_r	epicondLat_l	epicondMed_r	epicondMed_l	malleolusLat_r	malleolusLat_l	malleolusMedv_r	malleolusMedv_l	heel_r	heel_l	sternalnotch	xyphoidprocess	neck	subclavicle_r	subclavicle_l	toe_r	toe_l	thighwand_r	thighwand_l	upperleg1_r	upperleg1_l	upperleg2_r	upperleg2_l	shankwand_r	shankwand_l	lowerleg1_r	lowerleg1_l
	X1	Y1	Z1	X2	Y2	Z2	X3	Y3	Z3	X4	Y4	Z4	X5	Y5	Z5	X6	Y6	Z6	X7	Y7	Z7	X8	Y8	Z8	X9	Y9	Z9	X10	Y10	Z10	X11	Y11	Z11	X12	Y12	Z12	X13	Y13	Z13	X14	Y14	Z14	X15	Y15	Z15	X16	Y16	Z16	X17	Y17	Z17	X18	Y18	Z18	X19	Y19	Z19	X20	Y20	Z20	X21	Y21	Z21	X22	Y22	Z22	X23	Y23	Z23	X24	Y24	Z24	X25	Y25	Z25	X26	Y26	Z26	X27	Y27	Z27	X28	Y28	Z28	X29	Y29	Z29	X30	Y30	Z30	X31	Y31	Z31	X32	Y32	Z32	X33	Y33	Z33	X34	Y34	Z34	X35	Y35	Z35	X36	Y36	Z36	X37	Y37	Z37	X38	Y38	Z38	X39	Y39	Z39

	151	1.25833	749.011	784.934	-243.884	729.325	790.573	-164.361	727.023	790.701	-319.973	723.172	420.252	-155.081	732.363	428.715	-333.513	716.266	58.953	-117.126	726.396	56.924	-368.351	863.725	851.294	-244.122	865.547	851.192	-121.001	861.904	851.396	-367.244	626.676	944.637	-207.033	620.987	943.778	-262.402	729.521	421.981	-81.876	726.014	431.358	-406.690	708.682	427.075	-226.083	727.470	410.738	-258.952	705.825	63.239	-78.230	702.619	60.475	-402.178	721.976	66.980	-153.172	723.322	72.522	-325.895	654.000	49.650	-124.735	672.343	47.453	-334.267	789.229	1287.365	-265.470	845.794	1217.243	-265.692	671.993	1352.675	-246.591	806.599	1293.550	-212.709	805.155	1294.051	-294.386	824.437	43.657	-104.632	822.003	48.051	-382.850	890.958	571.854	-90.822	910.084	603.622	-347.997	852.855	594.696	-110.145	863.185	620.642	-351.840	823.977	522.657	-115.250	843.995	549.078	-352.358	800.817	208.611	-103.891	686.248	175.662	-459.850	755.119	214.589	-117.063	692.706	184.388	-412.338
	152	1.26667	749.037	784.934	-243.979	729.309	790.573	-164.465	727.082	790.721	-320.078	723.157	420.238	-155.073	732.310	428.715	-333.501	716.219	58.954	-117.163	726.391	56.938	-368.329	863.756	851.286	-244.153	865.517	851.169	-121.052	861.994	851.403	-367.255	626.723	944.668	-207.084	621.002	943.802	-262.365	729.506	421.989	-81.869	725.994	431.337	-406.682	708.712	427.052	-226.075	727.550	410.606	-259.139	705.777	63.236	-78.267	702.629	60.486	-402.167	721.998	66.977	-153.195	723.388	72.566	-325.907	653.998	49.646	-124.741	672.328	47.470	-334.239	789.140	1287.376	-265.358	845.669	1217.226	-265.690	671.978	1352.717	-246.426	806.556	1293.504	-212.593	805.046	1294.081	-294.293	824.432	43.658	-104.632	821.922	47.972	-382.848	890.920	571.864	-90.841	910.052	603.640	-348.040	852.787	594.779	-110.115	863.185	620.642	-351.840	823.973	522.656	-115.261	844.010	549.079	-352.432	800.812	208.705	-103.879	686.252	175.683	-459.810	755.119	214.589	-117.063	692.733	184.298	-412.446
	153	1.27500	749.062	784.935	-244.035	729.304	790.579	-164.527	727.128	790.740	-320.141	723.144	420.241	-155.065	732.279	428.727	-333.473	716.189	58.958	-117.190	726.396	56.957	-368.306	863.785	851.281	-244.166	865.506	851.153	-121.076	862.064	851.408	-367.256	626.789	944.698	-207.138	621.015	943.822	-262.310	729.492	422.005	-81.861	725.980	431.333	-406.656	709.238	426.494	-225.895	727.636	410.363	-259.575	705.747	63.237	-78.293	702.642	60.504	-402.150	722.223	66.935	-153.193	723.582	72.708	-325.959	653.993	49.646	-124.747	672.323	47.486	-334.207	789.037	1287.410	-265.335	845.563	1217.259	-265.922	671.985	1352.694	-246.401	806.578	1293.450	-212.755	804.875	1294.161	-294.144	824.430	43.662	-104.638	821.863	47.917	-382.852	890.896	571.869	-90.860	909.998	603.664	-348.083	852.702	594.868	-110.107	863.185	620.642	-351.840	824.188	522.612	-115.209	844.039	549.081	-352.582	800.802	208.778	-103.871	686.249	175.719	-459.759	755.251	214.666	-117.189	692.819	184.320	-412.624
	154	1.28333	749.090	784.935	-244.050	729.313	790.585	-164.545	727.166	790.752	-320.160	723.137	420.260	-155.061	732.241	428.732	-333.443	716.190	58.956	-117.190	726.404	56.976	-368.278	863.814	851.278	-244.157	865.512	851.146	-121.074	862.116	851.410	-367.240	626.860	944.717	-207.180	621.040	943.829	-262.250	729.483	422.029	-81.857	725.960	431.329	-406.628	709.404	426.302	-225.828	727.943	410.165	-259.598	705.748	63.234	-78.294	702.659	60.520	-402.129	722.645	66.849	-153.153	723.679	72.800	-325.971	653.980	49.657	-124.745	672.327	47.496	-334.181	789.034	1287.429	-265.361	845.532	1217.257	-266.128	671.990	1352.738	-246.379	806.613	1293.357	-212.826	804.857	1294.232	-294.123	824.432	43.668	-104.647	821.834	47.891	-382.851	890.898	571.866	-90.877	909.952	603.677	-348.113	852.614	594.788	-110.005	863.185	620.642	-351.840	824.330	522.582	-115.179	844.134	549.073	-352.601	800.794	208.820	-103.875	686.243	175.764	-459.710	755.513	214.819	-117.442	692.850	184.348	-412.708
	155	1.29167	749.115	784.931	-244.038	729.331	790.587	-164.534	727.193	790.755	-320.148	723.145	420.289	-155.062	732.200	428.725	-333.425	716.217	58.952	-117.176	726.412	56.988	-368.252	863.838	851.277	-244.138	865.529	851.144	-121.064	862.148	851.410	-367.211	626.935	944.716	-207.200	621.075	943.818	-262.182	729.484	422.055	-81.857	725.937	431.323	-406.612	709.305	426.355	-225.784	728.463	409.904	-259.469	705.770	63.231	-78.281	702.676	60.529	-402.109	722.854	66.806	-153.124	723.709	72.822	-325.957	653.959	49.681	-124.731	672.323	47.497	-334.169	789.178	1287.410	-265.384	845.675	1217.236	-266.012	672.018	1352.741	-246.373	806.604	1293.316	-212.738	805.084	1294.224	-294.154	824.440	43.672	-104.659	821.828	47.887	-382.849	890.936	571.847	-90.899	909.938	603.666	-348.120	852.609	594.765	-109.989	863.185	620.642	-351.840	824.330	522.582	-115.179	844.309	549.055	-352.564	800.795	208.835	-103.887	686.236	175.814	-459.677	755.645	214.896	-117.568	692.850	184.348	-412.708
	156	1.30000	749.124	784.923	-243.998	729.348	790.586	-164.492	727.191	790.747	-320.106	723.178	420.315	-155.079	732.201	428.730	-333.415	716.250	58.950	-117.156	726.424	56.982	-368.257	863.845	851.274	-244.115	865.550	851.146	-121.061	862.140	851.401	-367.169	627.000	944.698	-207.189	621.110	943.792	-262.109	729.497	422.071	-81.872	725.932	431.333	-406.601	709.196	426.469	-225.826	728.710	409.613	-259.799	705.793	63.232	-78.265	702.684	60.524	-402.112	722.633	66.850	-153.135	723.612	72.772	-325.924	653.935	49.710	-124.707	672.301	47.489	-334.176	789.456	1287.375	-265.435	846.032	1217.263	-265.780	672.036	1352.658	-246.412	806.704	1293.376	-212.760	805.448	1294.166	-294.145	824.472	43.677	-104.694	821.844	47.905	-382.843	890.993	571.818	-90.925	909.962	603.634	-348.107	852.694	594.754	-110.013	863.185	620.642	-351.840	824.306	522.525	-115.213	844.418	549.048	-352.658	800.824	208.825	-103.904	686.233	175.853	-459.681	755.513	214.819	-117.442	692.792	184.337	-412.635
	157	1.30833	749.110	784.916	-243.932	729.356	790.587	-164.421	727.156	790.728	-320.035	723.233	420.342	-155.119	732.302	428.782	-333.395	716.288	58.953	-117.134	726.456	56.956	-368.306	863.830	851.267	-244.089	865.569	851.155	-121.063	862.091	851.378	-367.116	627.038	944.671	-207.144	621.149	943.758	-262.041	729.522	422.077	-81.909	725.968	431.393	-406.575	709.050	426.656	-225.990	728.804	409.425	-260.098	705.815	63.242	-78.247	702.686	60.506	-402.139	722.193	66.941	-153.165	723.482	72.697	-325.906	653.923	49.733	-124.679	672.280	47.473	-334.200	789.656	1287.315	-265.503	846.261	1217.226	-265.801	672.008	1352.654	-246.417	806.911	1293.368	-212.919	805.640	1294.087	-294.138	824.539	43.683	-104.768	821.886	47.943	-382.840	891.049	571.798	-90.947	910.022	603.588	-348.079	852.800	594.687	-110.023	863.185	620.642	-351.840	824.256	522.412	-115.282	844.477	549.038	-352.737	800.873	208.796	-103.921	686.244	175.869	-459.717	755.251	214.666	-117.189	692.734	184.327	-412.561
	158	1.31667	749.083	784.909	-243.859	729.352	790.590	-164.343	727.110	790.705	-319.956	723.297	420.376	-155.167	732.472	428.867	-333.367	716.338	58.961	-117.109	726.508	56.925	-368.363	863.804	851.258	-244.059	865.576	851.167	-121.066	862.031	851.349	-367.051	627.056	944.642	-207.086	621.193	943.723	-261.983	729.558	422.088	-81.954	726.032	431.483	-406.538	709.012	426.674	-226.000	729.411	408.879	-260.226	705.851	63.257	-78.227	702.689	60.487	-402.160	721.961	66.995	-153.173	723.424	72.651	-325.905	653.926	49.746	-124.656	672.274	47.453	-334.234	789.872	1287.211	-265.494	846.462	1217.110	-265.925	671.961	1352.734	-246.384	807.293	1293.294	-213.008	805.769	1293.961	-294.145	824.613	43.688	-104.843	821.939	47.998	-382.878	891.106	571.786	-90.972	910.088	603.543	-348.053	852.951	594.661	-110.138	863.056	620.646	-351.741	824.237	522.372	-115.304	844.566	549.013	-352.745	800.919	208.755	-103.939	686.258	175.873	-459.762	755.119	214.589	-117.063	692.721	184.365	-412.503
	159	1.32500	749.056	784.906	-243.791	729.342	790.596	-164.272	727.070	790.690	-319.885	723.360	420.408	-155.206	732.662	428.959	-333.334	716.386	58.971	-117.086	726.565	56.902	-368.410	863.779	851.250	-244.022	865.575	851.176	-121.068	861.984	851.324	-366.976	627.065	944.628	-207.044	621.235	943.698	-261.942	729.599	422.100	-81.990	726.101	431.578	-406.493	708.986	426.610	-225.866	730.185	408.232	-260.109	705.888	63.274	-78.208	702.690	60.475	-402.166	721.938	67.008	-153.164	723.432	72.597	-325.904	653.934	49.751	-124.640	672.281	47.439	-334.271	790.183	1287.123	-265.409	846.792	1217.038	-265.953	671.966	1352.778	-246.362	807.758	1293.251	-212.925	805.993	1293.857	-294.166	824.667	43.690	-104.891	821.978	48.057	-382.970	891.162	571.779	-90.997	910.131	603.508	-348.053	853.039	594.649	-110.245	862.797	620.654	-351.543	824.248	522.407	-115.280	844.551	549.012	-352.670	800.944	208.703	-103.954	686.255	175.875	-459.792	755.119	214.589	-117.063	692.736	184.461	-412.378
	160	1.33333	749.032	784.909	-243.730	729.332	790.609	-164.210	727.035	790.687	-319.822	723.413	420.427	-155.221	732.872	429.066	-333.284	716.413	58.987	-117.086	726.624	56.886	-368.461	863.760	851.246	-243.986	865.574	851.185	-121.070	861.946	851.308	-366.903	627.067	944.641	-207.031	621.260	943.691	-261.916	729.640	422.105	-82.005	726.167	431.681	-406.431	708.894	426.697	-225.845	730.609	407.959	-259.846	705.909	63.293	-78.210	702.683	60.474	-402.168	721.938	67.020	-153.166	723.583	72.598	-325.948	653.951	49.748	-124.630	672.300	47.440	-334.289	790.336	1287.128	-265.372	846.958	1217.054	-265.849	672.167	1352.748	-246.274	807.908	1293.307	-212.824	806.143	1293.838	-294.204	824.691	43.689	-104.906	822.007	48.096	-383.086	891.210	571.784	-91.011	910.146	603.489	-348.083	853.090	594.630	-110.246	862.597	620.676	-351.466	824.248	522.407	-115.280	844.492	549.023	-352.591	800.937	208.640	-103.946	686.244	175.869	-459.802	755.119	214.589	-117.063	692.826	184.515	-412.363
	161	1.34167	749.020	784.913	-243.686	729.327	790.621	-164.163	727.013	790.692	-319.775	723.443	420.431	-155.207	733.066	429.166	-333.225	716.417	59.003	-117.109	726.678	56.881	-368.504	863.753	851.241	-243.958	865.580	851.185	-121.074	861.926	851.298	-366.841	627.061	944.672	-207.033	621.267	943.699	-261.899	729.672	422.103	-81.991	726.222	431.772	-406.360	708.761	426.887	-225.919	730.559	408.036	-259.680	705.913	63.305	-78.232	702.672	60.483	-402.164	721.965	67.026	-153.181	723.650	72.651	-325.974	653.970	49.735	-124.633	672.327	47.454	-334.277	790.390	1287.188	-265.419	847.030	1217.127	-265.775	672.485	1352.679	-246.114	807.931	1293.438	-212.877	806.212	1293.865	-294.242	824.682	43.686	-104.892	822.043	48.118	-383.199	891.246	571.802	-91.020	910.137	603.485	-348.135	853.098	594.611	-110.166	862.526	620.692	-351.487	824.237	522.372	-115.304	844.398	549.031	-352.572	800.907	208.568	-103.911	686.240	175.856	-459.799	755.119	214.589	-117.063	692.860	184.456	-412.481
